<svg version="1.1" id="Layer_1" xmlns="http://www.w3.org/2000/svg" xmlns:xlink="http://www.w3.org/1999/xlink" x="0px" y="0px"
	 viewBox="0 0 383.2 406.6" style="enable-background:new 0 0 383.2 406.6;" xml:space="preserve">
<style type="text/css">
	.st0{fill:#3BB769;}
	.st1{fill:#3282C5;}
	.st2{fill:#FFFFFF;}
</style>
<path class="st0" d="M328.6,145.8h-61.1c-1.5-14-4.1-20.7-7.8-25.8c-0.3-0.4-0.7-0.9-1-1.3L274.7,57c9.7,5,18.4,11.2,25.4,18.7
	c0.6,0.7,1.3,1.4,1.9,2.1C317.8,95.6,325.5,114.1,328.6,145.8z"/>
<path class="st1" d="M269,54.4l-40.6,48.4C218.3,101,205,100,187,100h-0.5c-43.8,0-60,5.6-68.7,15c-1.5,1.6-2.9,3.2-4.1,4.9
	c-3.7,5.1-6.3,11.8-7.8,25.8H44.9c3.1-31.7,10.8-50.1,26.7-68c0.6-0.7,1.3-1.4,1.9-2.1C98.3,49,143.1,39.3,186.8,39
	c28,0.2,56.3,4.3,79.7,14.2L269,54.4z"/>
<path class="st2" d="M300,310.2c22.5-24.3,29.6-55.2,30.2-112.3h0.1v-8.4c0-17.1-0.5-31.5-1.7-43.8h-61.1c1.1,10,1.7,23.9,1.7,43.8
	v3.4h0c-0.1,59.9-4.6,68.3-13.6,77.9c-8.7,9.4-24.8,15-68.7,15h-0.4c-43.8,0-60-5.6-68.7-15c-8.9-9.6-13.4-16.6-13.5-77.7v-3.6
	c0-19.9,0.5-33.8,1.7-43.8H44.9c-1.2,12.3-1.7,26.7-1.7,43.8v7.3l0.1,0c0.5,57.9,7.5,89,30.2,113.4c24.8,26.7,69.6,36.4,113.3,36.7
	c5.4,0,10.8-0.2,16.2-0.6c1.9-0.1,3.8,0.9,5.1,2.2c33,32.6,85,18.5,102.4,9.5c2.1-1.1,1.6-4.1-0.7-4.5c-20-3.8-24.5-22.6-25.1-24.7
	c-0.7-2.3-0.2-5.6,1.8-7C291.5,318.4,296,314.5,300,310.2z"/>
</svg>